<svg id="gel-icon-play" version="1.1" xmlns="http://www.w3.org/2000/svg" viewBox="0 0 26 32">
  <g><path d="M11 8v32l25.313-16z" transform="translate(-11 -8)"></path></g>
</svg>
<svg id="gel-icon-info" version="1.1" xmlns="http://www.w3.org/2000/svg" viewBox="0 0 32 32">
  <g fill-rule="evenodd">
    <path
      d="M25.439 17.745c-.368.328-.87.491-1.51.491-.638 0-1.141-.163-1.509-.49-.367-.328-.55-.771-.55-1.33 0-.575.183-1.026.55-1.354.368-.327.87-.49 1.51-.49.638 0 1.141.163 1.509.49.367.328.55.779.55 1.354 0 .559-.183 1.002-.55 1.33ZM22.157 32.49h3.545V20.081h-3.545v12.408ZM24 8C15.164 8 8 15.164 8 24s7.164 16 16.001 16C32.838 40 40 32.836 40 24S32.838 8 24.001 8Z"
      transform="translate(-8 -8)"
    ></path>
  </g>
</svg>
<svg id="gel-icon-no" version="1.1" xmlns="http://www.w3.org/2000/svg" viewBox="0 0 31 31">
  <g>
    <path
      d="M37.926 8 24.501 21.424 11.074 8 9 10.074l13.426 13.425L9 36.926 11.074 39l13.427-13.426L37.926 39 40 36.926 26.574 23.499 40 10.074z"
      transform="translate(-9 -8)"
    ></path>
  </g>
</svg>
<svg id="gel-icon-alert" version="1.1" xmlns="http://www.w3.org/2000/svg" viewBox="0 0 32 29">
  <g>
    <path
      d="M24 10c.864 0 1.727.426 2.221 1.28l6.725 11.571 6.702 11.535c.996 1.714-.24 3.86-2.22 3.86H10.572c-1.98 0-3.216-2.146-2.222-3.86l6.703-11.535L21.78 11.28A2.544 2.544 0 0 1 24 10Zm0 3.188-6.455 11.11-6.43 11.068h25.771l-6.432-11.068L24 13.188Zm.059 16.493c.382 0 .713.078.989.233.276.157.49.37.638.639.15.27.225.566.225.89 0 .324-.074.62-.225.89-.149.27-.362.486-.638.648-.276.162-.607.243-.99.243-.382 0-.712-.081-.989-.243a1.697 1.697 0 0 1-.638-.648 1.811 1.811 0 0 1-.225-.89c0-.324.076-.62.225-.89.15-.27.362-.482.638-.639.277-.155.607-.233.99-.233Zm1.726-9.478-.27 8.507h-2.913l-.271-8.507h3.454Z"
      transform="translate(-8 -10)"
    ></path>
  </g>
</svg>
<svg id="gel-icon-next" version="1.1" xmlns="http://www.w3.org/2000/svg" viewBox="0 0 23 32">
  <g>
    <path transform="matrix(-1 0 0 1 35.28 -8)" d="M28.52 8 13 24l15.52 16h6.76v-.001L19.89 24 35.28 8V8z"></path>
  </g>
</svg>
<svg id="gel-icon-previous" version="1.1" xmlns="http://www.w3.org/2000/svg" viewBox="0 0 23 32">
  <g><path d="M28.52 8 13 24l15.52 16h6.76v-.001L19.89 24 35.28 8V8z" transform="translate(-13 -8)"></path></g>
</svg>
<svg id="gel-icon-search" version="1.1" xmlns="http://www.w3.org/2000/svg" viewBox="0 0 31 32">
  <g>
    <path
      d="M11.554 20.769c0-5.632 4.583-10.215 10.215-10.215s10.215 4.583 10.215 10.215S27.4 30.984 21.769 30.984 11.554 26.4 11.554 20.769Zm28.17 16.521-8.246-8.242a12.701 12.701 0 0 0 3.06-8.28C34.538 13.718 28.82 8 21.768 8 14.719 8 9 13.717 9 20.769c0 7.052 5.718 12.769 12.769 12.769 2.505 0 4.833-.732 6.806-1.978L37.014 40l2.71-2.71Z"
      transform="translate(-9 -8)"
    ></path>
  </g>
</svg>
<svg id="gel-icon-parental-warning" version="1.1" xmlns="http://www.w3.org/2000/svg" viewBox="0 0 32 32">
  <g fill="none" fill-rule="evenodd">
    <g>
      <path d="M16 0C7.165 0 0 7.164 0 16s7.164 16 16 16c8.837 0 16-7.164 16-16S24.837 0 16 0Z" fill="#E4134F"></path>
      <path
        d="M22.438 22.88a9.607 9.607 0 0 1-1.743.701c-.648.196-1.327.343-2.035.442-.709.097-1.418.147-2.128.147-1.31 0-2.491-.192-3.54-.577-1.047-.384-1.936-.942-2.668-1.674-.732-.732-1.29-1.618-1.674-2.658-.385-1.041-.578-2.218-.578-3.53 0-1.282.204-2.44.611-3.472A7.559 7.559 0 0 1 10.424 9.6c.754-.738 1.664-1.304 2.728-1.696 1.062-.393 2.25-.59 3.563-.59.98 0 1.917.096 2.816.284a10.87 10.87 0 0 1 2.477.825v3.213a8.633 8.633 0 0 0-2.272-.962 10.385 10.385 0 0 0-2.66-.327c-1.13 0-2.1.212-2.907.634a4.278 4.278 0 0 0-1.844 1.832c-.423.8-.634 1.773-.634 2.918 0 1.75.438 3.096 1.314 4.039.874.942 2.125 1.413 3.754 1.413.409 0 .814-.029 1.222-.09.408-.06.807-.15 1.2-.271v-3.258h-2.896v-2.738h6.153v8.054Z"
        fill="#FFF"
      ></path>
    </g>
  </g>
</svg>
<svg id="tvip-down-triangle" version="1.1" xmlns="http://www.w3.org/2000/svg" viewBox="0 0 32 22">
  <g><path d="M8 13v5.578l16 15.888 16-15.888V13z" transform="translate(-8 -13)"></path></g>
</svg>
<svg id="iplayer-nav-icon-bbcalba" viewBox="0 0 76 32">
  <path
    d="m23.773 22.7-.909-2.71h-5.07l-.909 2.71H14l2.421-6.416 2.491-6.084h2.902l2.526 6.25 2.386 6.25h-2.955zm-5.21-4.948h3.514l-.865-2.439-.883-2.386-1.766 4.825zm9.685-7.552h2.692v10.157h5.927V22.7h-8.619zm20.355 8.899c0 .746-.195 1.387-.586 1.923s-.947.95-1.67 1.241-1.591.437-2.605.437H38.62V10.2h4.825c1.422 0 2.523.277 3.304.83s1.171 1.349 1.171 2.386c0 .594-.14 1.11-.42 1.547s-.694.784-1.241 1.04c.757.245 1.337.633 1.739 1.163s.603 1.174.603 1.932zm-7.378-3.759h1.976c.676 0 1.192-.143 1.547-.428s.533-.685.533-1.197c0-.991-.694-1.486-2.08-1.486h-1.976v3.112zm0 5.332h2.273c.781 0 1.381-.142 1.801-.428s.629-.696.629-1.232c0-1.142-.798-1.713-2.395-1.713h-2.308v3.374zM58.918 22.7l-.909-2.71h-5.07l-.909 2.71h-2.885l2.421-6.416 2.491-6.084h2.902l2.526 6.25 2.386 6.25h-2.955zm-5.21-4.948h3.514l-.865-2.439-.883-2.386-1.766 4.825z"
    fill="#fff"
    fill-rule="nonzero"
  ></path>
</svg>
<svg id="iplayer-nav-icon-bbcalba-active" viewBox="0 0 76 32">
  <path fill="#0096dc" d="M0 0h76v32H0z"></path>
  <path
    d="m23.773 22.7-.909-2.71h-5.07l-.909 2.71H14l2.421-6.416 2.491-6.084h2.902l2.526 6.25 2.386 6.25h-2.955zm-5.21-4.948h3.514l-.865-2.439-.883-2.386-1.766 4.825zm9.685-7.552h2.692v10.157h5.927V22.7h-8.619zm20.355 8.899c0 .746-.195 1.387-.586 1.923s-.947.95-1.67 1.241-1.591.437-2.605.437H38.62V10.2h4.825c1.422 0 2.523.277 3.304.83s1.171 1.349 1.171 2.386c0 .594-.14 1.11-.42 1.547s-.694.784-1.241 1.04c.757.245 1.337.633 1.739 1.163s.603 1.174.603 1.932zm-7.378-3.759h1.976c.676 0 1.192-.143 1.547-.428s.533-.685.533-1.197c0-.991-.694-1.486-2.08-1.486h-1.976v3.112zm0 5.332h2.273c.781 0 1.381-.142 1.801-.428s.629-.696.629-1.232c0-1.142-.798-1.713-2.395-1.713h-2.308v3.374zM58.918 22.7l-.909-2.71h-5.07l-.909 2.71h-2.885l2.421-6.416 2.491-6.084h2.902l2.526 6.25 2.386 6.25h-2.955zm-5.21-4.948h3.514l-.865-2.439-.883-2.386-1.766 4.825z"
    fill="#fff"
    fill-rule="nonzero"
  ></path>
</svg>
<svg id="iplayer-nav-icon-bbcfour" viewBox="0 0 76 32">
  <path
    d="M15 10.262h8.323v2.234h-5.636v3.071h4.973V17.8h-4.973v4.938H15V10.263zM30.461 10c.942 0 1.794.151 2.556.454a5.46 5.46 0 0 1 1.954 1.3c.541.564.957 1.245 1.248 2.042s.437 1.696.437 2.696c0 .989-.146 1.885-.437 2.687s-.706 1.489-1.248 2.059-1.192 1.006-1.954 1.309-1.614.453-2.556.453-1.795-.151-2.557-.453-1.413-.739-1.954-1.309-.957-1.257-1.248-2.059-.436-1.698-.436-2.687c0-1 .145-1.899.436-2.696s.706-1.477 1.248-2.042 1.192-.997 1.954-1.3S29.518 10 30.461 10zm0 10.662c.709 0 1.32-.165 1.832-.497s.901-.805 1.169-1.422.401-1.367.401-2.251-.134-1.634-.401-2.251-.657-1.088-1.169-1.413-1.123-.489-1.832-.489-1.321.163-1.833.489-.901.797-1.169 1.413-.401 1.367-.401 2.251.133 1.635.401 2.251.657 1.091 1.169 1.422 1.123.497 1.833.497zM43.548 23c-1.116 0-2.074-.212-2.87-.637s-1.407-1.038-1.832-1.841-.637-1.768-.637-2.897v-7.364h2.687v7.66c0 .884.23 1.562.689 2.033s1.114.706 1.963.706 1.504-.235 1.963-.706.689-1.149.689-2.033v-7.66h2.687v7.364c0 1.128-.212 2.094-.637 2.897s-1.039 1.416-1.841 1.841-1.756.637-2.862.637zm9.894-4.798v4.537H50.79V10.263h4.554c1.64 0 2.9.343 3.778 1.029s1.318 1.67 1.318 2.949c0 .826-.195 1.53-.584 2.112s-.946 1.03-1.666 1.344l1.553 2.486 1.536 2.556h-3.088l-2.6-4.537H53.444zm0-2.112h1.745c.826 0 1.454-.148 1.884-.445s.646-.765.646-1.405-.213-1.111-.637-1.413-1.05-.453-1.876-.453h-1.763v3.717z"
    fill="#fff"
    fill-rule="nonzero"
  ></path>
</svg>
<svg id="iplayer-nav-icon-bbcfour-active" viewBox="0 0 76 32">
  <path fill="#7831eb" d="M0 0h76v32H0z"></path>
  <path
    d="M15 10.262h8.323v2.234h-5.636v3.071h4.973V17.8h-4.973v4.938H15V10.263zM30.461 10c.942 0 1.794.151 2.556.454a5.46 5.46 0 0 1 1.954 1.3c.541.564.957 1.245 1.248 2.042s.437 1.696.437 2.696c0 .989-.146 1.885-.437 2.687s-.706 1.489-1.248 2.059-1.192 1.006-1.954 1.309-1.614.453-2.556.453-1.795-.151-2.557-.453-1.413-.739-1.954-1.309-.957-1.257-1.248-2.059-.436-1.698-.436-2.687c0-1 .145-1.899.436-2.696s.706-1.477 1.248-2.042 1.192-.997 1.954-1.3S29.518 10 30.461 10zm0 10.662c.709 0 1.32-.165 1.832-.497s.901-.805 1.169-1.422.401-1.367.401-2.251-.134-1.634-.401-2.251-.657-1.088-1.169-1.413-1.123-.489-1.832-.489-1.321.163-1.833.489-.901.797-1.169 1.413-.401 1.367-.401 2.251.133 1.635.401 2.251.657 1.091 1.169 1.422 1.123.497 1.833.497zM43.548 23c-1.116 0-2.074-.212-2.87-.637s-1.407-1.038-1.832-1.841-.637-1.768-.637-2.897v-7.364h2.687v7.66c0 .884.23 1.562.689 2.033s1.114.706 1.963.706 1.504-.235 1.963-.706.689-1.149.689-2.033v-7.66h2.687v7.364c0 1.128-.212 2.094-.637 2.897s-1.039 1.416-1.841 1.841-1.756.637-2.862.637zm9.894-4.798v4.537H50.79V10.263h4.554c1.64 0 2.9.343 3.778 1.029s1.318 1.67 1.318 2.949c0 .826-.195 1.53-.584 2.112s-.946 1.03-1.666 1.344l1.553 2.486 1.536 2.556h-3.088l-2.6-4.537H53.444zm0-2.112h1.745c.826 0 1.454-.148 1.884-.445s.646-.765.646-1.405-.213-1.111-.637-1.413-1.05-.453-1.876-.453h-1.763v3.717z"
    fill="#fff"
    fill-rule="nonzero"
  ></path>
</svg>
<svg id="iplayer-nav-icon-bbcnews" viewBox="0 0 76 32">
  <path
    d="m21.097 22.738-2.757-4.371-2.757-4.249v8.62H13V10.261h2.722l2.783 4.232 2.731 4.301v-8.533h2.583v12.477h-2.722zm5.025-12.476h8.585v2.234h-5.898V15.2h5.235v2.233h-5.235v3.071h6.23v2.233h-8.917zm20.032 12.476-1.16-4.223-1.108-4.223-1.082 4.223-1.152 4.223h-2.844l-1.71-6.177-1.553-6.299h2.932l.925 4.851 1.029 4.764 2.216-9.091h2.617l1.073 4.458 1.126 4.441 1.012-4.677.907-4.746h2.879l-1.553 6.3-1.71 6.177h-2.844zM57.042 23a9.21 9.21 0 0 1-2.033-.227 7.78 7.78 0 0 1-1.928-.715V19.65c1.245.756 2.565 1.134 3.961 1.134.791 0 1.393-.134 1.806-.401a1.26 1.26 0 0 0 .62-1.117c0-.361-.102-.643-.305-.846s-.474-.366-.811-.489-.715-.236-1.134-.34a12.98 12.98 0 0 1-1.815-.558c-.523-.209-.966-.456-1.326-.742s-.634-.628-.82-1.029-.279-.881-.279-1.44c0-.791.201-1.472.602-2.042s.968-1.009 1.701-1.318S56.885 10 57.897 10a8.48 8.48 0 0 1 1.954.227 7.94 7.94 0 0 1 1.728.611v2.373a6.613 6.613 0 0 0-1.736-.733 7.43 7.43 0 0 0-1.946-.262c-.71 0-1.259.122-1.649.366s-.585.593-.585 1.047c0 .326.093.585.279.777s.451.349.794.471a13.15 13.15 0 0 0 1.213.358l1.658.497a5.38 5.38 0 0 1 1.352.689 2.87 2.87 0 0 1 .907 1.064c.215.431.323.96.323 1.588 0 .826-.204 1.533-.611 2.12s-.995 1.036-1.763 1.344-1.693.462-2.775.462z"
    fill="#fff"
    fill-rule="nonzero"
  ></path>
</svg>
<svg id="iplayer-nav-icon-bbcnews-active" viewBox="0 0 76 32">
  <path fill="#eb0000" d="M0 0h76v32H0z"></path>
  <path
    d="m21.097 22.738-2.757-4.371-2.757-4.249v8.62H13V10.261h2.722l2.783 4.232 2.731 4.301v-8.533h2.583v12.477h-2.722zm5.025-12.476h8.585v2.234h-5.898V15.2h5.235v2.233h-5.235v3.071h6.23v2.233h-8.917zm20.032 12.476-1.16-4.223-1.108-4.223-1.082 4.223-1.152 4.223h-2.844l-1.71-6.177-1.553-6.299h2.932l.925 4.851 1.029 4.764 2.216-9.091h2.617l1.073 4.458 1.126 4.441 1.012-4.677.907-4.746h2.879l-1.553 6.3-1.71 6.177h-2.844zM57.042 23a9.21 9.21 0 0 1-2.033-.227 7.78 7.78 0 0 1-1.928-.715V19.65c1.245.756 2.565 1.134 3.961 1.134.791 0 1.393-.134 1.806-.401a1.26 1.26 0 0 0 .62-1.117c0-.361-.102-.643-.305-.846s-.474-.366-.811-.489-.715-.236-1.134-.34a12.98 12.98 0 0 1-1.815-.558c-.523-.209-.966-.456-1.326-.742s-.634-.628-.82-1.029-.279-.881-.279-1.44c0-.791.201-1.472.602-2.042s.968-1.009 1.701-1.318S56.885 10 57.897 10a8.48 8.48 0 0 1 1.954.227 7.94 7.94 0 0 1 1.728.611v2.373a6.613 6.613 0 0 0-1.736-.733 7.43 7.43 0 0 0-1.946-.262c-.71 0-1.259.122-1.649.366s-.585.593-.585 1.047c0 .326.093.585.279.777s.451.349.794.471a13.15 13.15 0 0 0 1.213.358l1.658.497a5.38 5.38 0 0 1 1.352.689 2.87 2.87 0 0 1 .907 1.064c.215.431.323.96.323 1.588 0 .826-.204 1.533-.611 2.12s-.995 1.036-1.763 1.344-1.693.462-2.775.462z"
    fill="#fff"
    fill-rule="nonzero"
  ></path>
</svg>
<svg id="iplayer-nav-icon-bbcone" viewBox="0 0 76 32">
  <path
    d="M31.953 13.795c-.291-.796-.707-1.477-1.248-2.042s-1.193-.997-1.955-1.3S27.137 10 26.194 10s-1.794.151-2.556.454a5.46 5.46 0 0 0-1.954 1.3c-.541.564-.957 1.245-1.248 2.042S20 15.492 20 16.492c0 .989.146 1.885.436 2.688s.707 1.489 1.248 2.059 1.192 1.006 1.954 1.309 1.614.453 2.556.453 1.794-.151 2.556-.453 1.414-.739 1.955-1.309.956-1.256 1.248-2.059.436-1.698.436-2.687c0-1-.146-1.899-.436-2.696zm-2.757 4.947c-.268.617-.657 1.091-1.169 1.422s-1.123.497-1.833.497-1.32-.165-1.832-.497-.902-.805-1.169-1.422-.402-1.367-.402-2.251.134-1.634.402-2.251.657-1.088 1.169-1.413 1.122-.489 1.832-.489 1.32.163 1.833.489.901.797 1.169 1.413.401 1.367.401 2.251-.134 1.635-.401 2.251zm12.989 3.996-2.757-4.372-2.757-4.249v8.62h-2.583V10.262h2.723l2.783 4.232 2.731 4.301v-8.533h2.582v12.477h-2.722zm4.91-12.477h8.585v2.234h-5.898V15.2h5.235v2.234h-5.235v3.071h6.23v2.234h-8.917V10.261z"
    fill="#fff"
    fill-rule="nonzero"
  ></path>
</svg>
<svg id="iplayer-nav-icon-bbcone-active" viewBox="0 0 76 32">
  <path fill="#e8504b" d="M0 0h76v32H0z"></path>
  <path
    d="M31.953 13.795c-.291-.796-.707-1.477-1.248-2.042s-1.193-.997-1.955-1.3S27.137 10 26.194 10s-1.794.151-2.556.454a5.46 5.46 0 0 0-1.954 1.3c-.541.564-.957 1.245-1.248 2.042S20 15.492 20 16.492c0 .989.146 1.885.436 2.688s.707 1.489 1.248 2.059 1.192 1.006 1.954 1.309 1.614.453 2.556.453 1.794-.151 2.556-.453 1.414-.739 1.955-1.309.956-1.256 1.248-2.059.436-1.698.436-2.687c0-1-.146-1.899-.436-2.696zm-2.757 4.947c-.268.617-.657 1.091-1.169 1.422s-1.123.497-1.833.497-1.32-.165-1.832-.497-.902-.805-1.169-1.422-.402-1.367-.402-2.251.134-1.634.402-2.251.657-1.088 1.169-1.413 1.122-.489 1.832-.489 1.32.163 1.833.489.901.797 1.169 1.413.401 1.367.401 2.251-.134 1.635-.401 2.251zm12.989 3.996-2.757-4.372-2.757-4.249v8.62h-2.583V10.262h2.723l2.783 4.232 2.731 4.301v-8.533h2.582v12.477h-2.722zm4.91-12.477h8.585v2.234h-5.898V15.2h5.235v2.234h-5.235v3.071h6.23v2.234h-8.917V10.261z"
    fill="#fff"
    fill-rule="nonzero"
  ></path>
</svg>
<svg id="iplayer-nav-icon-radio1" viewBox="0 0 76 32">
  <path
    d="M58.322 6a10 10 0 1 0 0 20 10 10 0 1 0 0-20zm2.233 16.797h-2.872V12.322l-1.58.823-1.503.823v-2.643l1.704-.929a71.63 71.63 0 0 1 1.972-.986h2.279v13.386zm-50.784-5.65v3.029H8v-8.331h3.041c1.095 0 1.936.229 2.523.688s.88 1.115.88 1.969c0 .552-.13 1.021-.39 1.41s-.631.687-1.113.897l1.037 1.66 1.025 1.707H12.94l-1.736-3.029H9.771zm0-1.41h1.165c.551 0 .971-.099 1.258-.297s.431-.511.431-.938-.142-.742-.425-.944-.701-.303-1.253-.303H9.771v2.482zm12.245 4.44-.606-1.806h-3.379l-.606 1.806h-1.922l1.614-4.276 1.66-4.055h1.934l1.684 4.166 1.59 4.165h-1.969zm-3.472-3.297h2.342l-.577-1.625-.588-1.59-1.177 3.216zm6.455-5.034h3.181c.878 0 1.629.163 2.255.489s1.101.798 1.427 1.416.489 1.365.489 2.242-.165 1.63-.495 2.255a3.37 3.37 0 0 1-1.427 1.433c-.622.33-1.375.495-2.26.495H25v-8.331zm3.076 6.793c.776 0 1.373-.227 1.788-.682s.623-1.108.623-1.963c0-.846-.204-1.493-.612-1.94s-1.004-.67-1.788-.67h-1.293v5.255h1.282zm5.697-6.793h1.795v8.331h-1.795zm7.353-.175c.629 0 1.198.101 1.707.303a3.64 3.64 0 0 1 1.305.868 3.85 3.85 0 0 1 .833 1.363c.194.532.291 1.133.291 1.801 0 .66-.097 1.258-.291 1.794a3.9 3.9 0 0 1-.833 1.375 3.6 3.6 0 0 1-1.305.874c-.509.202-1.078.303-1.707.303s-1.198-.101-1.707-.303a3.6 3.6 0 0 1-1.305-.874 3.89 3.89 0 0 1-.833-1.375 5.242 5.242 0 0 1-.291-1.794c0-.668.097-1.268.291-1.8s.472-.986.833-1.363a3.64 3.64 0 0 1 1.305-.868 4.592 4.592 0 0 1 1.707-.303zm0 7.119c.474 0 .881-.111 1.223-.332s.602-.538.781-.95.268-.913.268-1.503-.089-1.091-.268-1.503-.439-.726-.781-.944-.75-.326-1.223-.326-.882.109-1.223.326a2.05 2.05 0 0 0-.781.944c-.179.412-.268.913-.268 1.503s.089 1.091.268 1.503.439.728.781.95.749.332 1.223.332z"
    fill="#fff"
    fill-rule="nonzero"
  ></path>
</svg>
<svg id="iplayer-nav-icon-radio1-active" viewBox="0 0 76 32" fill-rule="evenodd">
  <path fill="#fff" d="M0 0h76v32H0z"></path>
  <path
    fill="#000"
    d="M58.322 6a10 10 0 1 0 0 20 10 10 0 1 0 0-20zm2.233 16.797h-2.872V12.322l-1.58.823-1.503.823v-2.643l1.704-.929a71.63 71.63 0 0 1 1.972-.986h2.279v13.386zm-50.784-5.65v3.029H8v-8.331h3.041c1.095 0 1.936.229 2.523.688s.88 1.115.88 1.969c0 .552-.13 1.021-.39 1.41s-.631.687-1.113.897l1.037 1.66 1.025 1.707H12.94l-1.736-3.029H9.771zm0-1.41h1.165c.551 0 .971-.099 1.258-.297s.431-.511.431-.938-.142-.742-.425-.944-.701-.303-1.253-.303H9.771v2.482zm12.245 4.44-.606-1.806h-3.379l-.606 1.806h-1.922l1.614-4.276 1.66-4.055h1.934l1.684 4.166 1.59 4.165h-1.969zm-3.472-3.297h2.342l-.577-1.625-.588-1.59-1.177 3.216zm6.455-5.034h3.181c.878 0 1.629.163 2.255.489s1.101.798 1.427 1.416.489 1.365.489 2.242-.165 1.63-.495 2.255a3.37 3.37 0 0 1-1.427 1.433c-.622.33-1.375.495-2.26.495H25v-8.331zm3.076 6.793c.776 0 1.373-.227 1.788-.682s.623-1.108.623-1.963c0-.846-.204-1.493-.612-1.94s-1.004-.67-1.788-.67h-1.293v5.255h1.282zm5.697-6.793h1.795v8.331h-1.795zm7.353-.175c.629 0 1.198.101 1.707.303a3.64 3.64 0 0 1 1.305.868 3.85 3.85 0 0 1 .833 1.363c.194.532.291 1.133.291 1.801 0 .66-.097 1.258-.291 1.794a3.9 3.9 0 0 1-.833 1.375 3.6 3.6 0 0 1-1.305.874c-.509.202-1.078.303-1.707.303s-1.198-.101-1.707-.303a3.6 3.6 0 0 1-1.305-.874 3.89 3.89 0 0 1-.833-1.375 5.242 5.242 0 0 1-.291-1.794c0-.668.097-1.268.291-1.8s.472-.986.833-1.363a3.64 3.64 0 0 1 1.305-.868 4.592 4.592 0 0 1 1.707-.303zm0 7.119c.474 0 .881-.111 1.223-.332s.602-.538.781-.95.268-.913.268-1.503-.089-1.091-.268-1.503-.439-.726-.781-.944-.75-.326-1.223-.326-.882.109-1.223.326a2.05 2.05 0 0 0-.781.944c-.179.412-.268.913-.268 1.503s.089 1.091.268 1.503.439.728.781.95.749.332 1.223.332z"
    fill-rule="nonzero"
  ></path>
</svg>
<svg id="iplayer-nav-icon-bbcparliament" viewBox="0 0 76 32">
  <path
    d="M8 19.5V13h2.336c.836 0 1.479.185 1.927.555s.673.9.673 1.591c0 .455-.102.841-.305 1.159s-.499.561-.886.727-.861.25-1.418.25h-.945V19.5H8zm1.382-3.318h.873c.412 0 .726-.083.941-.25s.323-.429.323-.786-.108-.621-.323-.791-.526-.255-.932-.255h-.882v2.082zm8.292 3.318-.473-1.409h-2.636l-.473 1.409h-1.5l1.259-3.336L15.147 13h1.509l1.314 3.25 1.241 3.25h-1.536zm-2.709-2.573h1.827l-.45-1.268-.459-1.241-.918 2.509zm6.373.209V19.5h-1.382V13h2.373c.855 0 1.511.179 1.968.536s.686.87.686 1.536c0 .43-.102.797-.305 1.1a1.95 1.95 0 0 1-.868.7l.809 1.296.8 1.332H23.81l-1.355-2.364H21.337zm0-1.1h.909c.43 0 .758-.077.982-.232s.336-.398.336-.732-.111-.579-.332-.736-.547-.236-.977-.236h-.918v1.936zM26.22 13h1.4v5.282h3.081V19.5H26.22zm5.318 0h1.4v6.5h-1.4zm7.272 6.5-.473-1.409h-2.636l-.473 1.409h-1.5l1.259-3.336L36.283 13h1.509l1.314 3.25 1.241 3.25H38.81zm-2.709-2.573h1.827l-.45-1.268-.459-1.241-.918 2.509zm7.909 1.364-.782-1.605-.755-1.604V19.5h-1.336V13h1.682l.873 1.995.909 1.968.9-1.959.864-2.005h1.636v6.5h-1.336v-4.436l-.759 1.623-.777 1.604H44.01zM49.278 13h4.473v1.164h-3.073v1.409h2.727v1.164h-2.727v1.6h3.246V19.5h-4.646zm9.93 6.5-1.436-2.277-1.436-2.214V19.5H54.99V13h1.418l1.45 2.204 1.423 2.241V13h1.346v6.5h-1.418zm2.33-6.5h5.491v1.218h-2.045V19.5h-1.4v-5.282h-2.046V13z"
    fill="#fff"
    fill-rule="nonzero"
  ></path>
</svg>
<svg id="iplayer-nav-icon-bbcparliament-active" viewBox="0 0 76 32">
  <path fill="#eb0000" d="M0 0h76v32H0z"></path>
  <path
    d="M8 19.5V13h2.336c.836 0 1.479.185 1.927.555s.673.9.673 1.591c0 .455-.102.841-.305 1.159s-.499.561-.886.727-.861.25-1.418.25h-.945V19.5H8zm1.382-3.318h.873c.412 0 .726-.083.941-.25s.323-.429.323-.786-.108-.621-.323-.791-.526-.255-.932-.255h-.882v2.082zm8.292 3.318-.473-1.409h-2.636l-.473 1.409h-1.5l1.259-3.336L15.147 13h1.509l1.314 3.25 1.241 3.25h-1.536zm-2.709-2.573h1.827l-.45-1.268-.459-1.241-.918 2.509zm6.373.209V19.5h-1.382V13h2.373c.855 0 1.511.179 1.968.536s.686.87.686 1.536c0 .43-.102.797-.305 1.1a1.95 1.95 0 0 1-.868.7l.809 1.296.8 1.332H23.81l-1.355-2.364H21.337zm0-1.1h.909c.43 0 .758-.077.982-.232s.336-.398.336-.732-.111-.579-.332-.736-.547-.236-.977-.236h-.918v1.936zM26.22 13h1.4v5.282h3.081V19.5H26.22zm5.318 0h1.4v6.5h-1.4zm7.272 6.5-.473-1.409h-2.636l-.473 1.409h-1.5l1.259-3.336L36.283 13h1.509l1.314 3.25 1.241 3.25H38.81zm-2.709-2.573h1.827l-.45-1.268-.459-1.241-.918 2.509zm7.909 1.364-.782-1.605-.755-1.604V19.5h-1.336V13h1.682l.873 1.995.909 1.968.9-1.959.864-2.005h1.636v6.5h-1.336v-4.436l-.759 1.623-.777 1.604H44.01zM49.278 13h4.473v1.164h-3.073v1.409h2.727v1.164h-2.727v1.6h3.246V19.5h-4.646zm9.93 6.5-1.436-2.277-1.436-2.214V19.5H54.99V13h1.418l1.45 2.204 1.423 2.241V13h1.346v6.5h-1.418zm2.33-6.5h5.491v1.218h-2.045V19.5h-1.4v-5.282h-2.046V13z"
    fill="#fff"
    fill-rule="nonzero"
  ></path>
</svg>
<svg id="iplayer-nav-icon-bbcscotland" viewBox="0 0 76 32">
  <path
    d="M11.502 20c-.422 0-.839-.047-1.251-.14a4.78 4.78 0 0 1-1.187-.44v-1.482a4.624 4.624 0 0 0 2.438.698c.487 0 .857-.082 1.111-.247s.381-.394.381-.687c0-.222-.063-.395-.188-.521a1.34 1.34 0 0 0-.499-.301 7.17 7.17 0 0 0-.698-.209c-.422-.1-.795-.215-1.117-.344s-.594-.281-.816-.456a1.72 1.72 0 0 1-.505-.634A2.09 2.09 0 0 1 9 14.352c0-.487.124-.906.37-1.256s.596-.621 1.047-.811.988-.285 1.611-.285a5.22 5.22 0 0 1 1.203.14c.394.093.748.218 1.063.376v1.46a4.05 4.05 0 0 0-1.068-.451 4.57 4.57 0 0 0-1.197-.161c-.437 0-.775.075-1.015.226s-.36.365-.36.644c0 .201.057.36.172.478s.277.215.489.29a8.11 8.11 0 0 0 .746.22l1.02.306a3.31 3.31 0 0 1 .832.424 1.76 1.76 0 0 1 .558.655c.132.265.199.591.199.977 0 .508-.125.943-.376 1.305s-.612.637-1.085.827-1.042.285-1.707.285zm7.907 0a4.641 4.641 0 0 1-1.643-.274 3.36 3.36 0 0 1-1.235-.789c-.337-.343-.594-.764-.773-1.262s-.268-1.058-.268-1.681c0-.608.093-1.158.279-1.648a3.53 3.53 0 0 1 .805-1.262c.351-.351.771-.619 1.262-.805S18.876 12 19.484 12c.422 0 .821.045 1.197.134s.725.22 1.047.392v1.525a3.45 3.45 0 0 0-.956-.456 3.76 3.76 0 0 0-1.085-.156c-.523 0-.968.1-1.337.301a2.03 2.03 0 0 0-.848.87c-.197.38-.295.841-.295 1.385s.095 1.008.285 1.391.465.675.827.875.8.301 1.316.301a3.99 3.99 0 0 0 2.18-.634v1.493c-.315.179-.68.32-1.095.424s-.852.156-1.31.156zm7.04-8c.58 0 1.104.093 1.573.279a3.36 3.36 0 0 1 1.203.8c.333.347.589.766.768 1.256s.268 1.043.268 1.659c0 .609-.09 1.16-.268 1.654s-.435.917-.768 1.267-.734.619-1.203.805-.993.279-1.573.279-1.104-.093-1.573-.279-.87-.455-1.203-.805-.589-.773-.768-1.267-.268-1.045-.268-1.654c0-.616.089-1.169.268-1.659s.435-.909.768-1.256a3.36 3.36 0 0 1 1.203-.8A4.233 4.233 0 0 1 26.449 12zm0 6.561c.437 0 .812-.102 1.128-.306s.555-.496.719-.875.247-.841.247-1.385-.082-1.006-.247-1.385a1.89 1.89 0 0 0-.719-.87c-.315-.2-.691-.301-1.128-.301s-.813.1-1.128.301-.555.49-.719.87-.247.841-.247 1.385.082 1.006.247 1.385a1.92 1.92 0 0 0 .719.875c.315.204.691.306 1.128.306zm4.031-6.4h6.486V13.6h-2.417v6.239h-1.653V13.6H30.48zm7.473 0h1.654V18.4h3.64v1.439h-5.294zm12.016 7.678-.558-1.664h-3.114l-.558 1.664h-1.772l1.487-3.941 1.53-3.737h1.782L50.318 16l1.466 3.839h-1.815zm-3.2-3.039h2.158l-.532-1.498-.542-1.466-1.084 2.964zm11.021 3.039-1.697-2.69-1.697-2.615v5.305h-1.589v-7.678h1.675l1.713 2.604 1.681 2.647v-5.251h1.589v7.678H57.79zm3.182-7.678h2.932c.809 0 1.502.15 2.078.451s1.015.736 1.315 1.305.451 1.258.451 2.067-.152 1.502-.456 2.078a3.1 3.1 0 0 1-1.315 1.321c-.573.304-1.267.456-2.083.456h-2.921v-7.678zm2.835 6.26c.716 0 1.265-.209 1.648-.628s.574-1.022.574-1.809c0-.78-.188-1.376-.564-1.788s-.925-.617-1.648-.617h-1.192v4.843h1.181z"
    fill="#fff"
    fill-rule="nonzero"
  ></path>
</svg>
<svg id="iplayer-nav-icon-bbcscotland-active" viewBox="0 0 76 32">
  <path fill="#3c53fa" d="M0 0h76v32H0z"></path>
  <path
    d="M11.502 20c-.422 0-.839-.047-1.251-.14a4.78 4.78 0 0 1-1.187-.44v-1.482a4.624 4.624 0 0 0 2.438.698c.487 0 .857-.082 1.111-.247s.381-.394.381-.687c0-.222-.063-.395-.188-.521a1.34 1.34 0 0 0-.499-.301 7.17 7.17 0 0 0-.698-.209c-.422-.1-.795-.215-1.117-.344s-.594-.281-.816-.456a1.72 1.72 0 0 1-.505-.634A2.09 2.09 0 0 1 9 14.352c0-.487.124-.906.37-1.256s.596-.621 1.047-.811.988-.285 1.611-.285a5.22 5.22 0 0 1 1.203.14c.394.093.748.218 1.063.376v1.46a4.05 4.05 0 0 0-1.068-.451 4.57 4.57 0 0 0-1.197-.161c-.437 0-.775.075-1.015.226s-.36.365-.36.644c0 .201.057.36.172.478s.277.215.489.29a8.11 8.11 0 0 0 .746.22l1.02.306a3.31 3.31 0 0 1 .832.424 1.76 1.76 0 0 1 .558.655c.132.265.199.591.199.977 0 .508-.125.943-.376 1.305s-.612.637-1.085.827-1.042.285-1.707.285zm7.907 0a4.641 4.641 0 0 1-1.643-.274 3.36 3.36 0 0 1-1.235-.789c-.337-.343-.594-.764-.773-1.262s-.268-1.058-.268-1.681c0-.608.093-1.158.279-1.648a3.53 3.53 0 0 1 .805-1.262c.351-.351.771-.619 1.262-.805S18.876 12 19.484 12c.422 0 .821.045 1.197.134s.725.22 1.047.392v1.525a3.45 3.45 0 0 0-.956-.456 3.76 3.76 0 0 0-1.085-.156c-.523 0-.968.1-1.337.301a2.03 2.03 0 0 0-.848.87c-.197.38-.295.841-.295 1.385s.095 1.008.285 1.391.465.675.827.875.8.301 1.316.301a3.99 3.99 0 0 0 2.18-.634v1.493c-.315.179-.68.32-1.095.424s-.852.156-1.31.156zm7.04-8c.58 0 1.104.093 1.573.279a3.36 3.36 0 0 1 1.203.8c.333.347.589.766.768 1.256s.268 1.043.268 1.659c0 .609-.09 1.16-.268 1.654s-.435.917-.768 1.267-.734.619-1.203.805-.993.279-1.573.279-1.104-.093-1.573-.279-.87-.455-1.203-.805-.589-.773-.768-1.267-.268-1.045-.268-1.654c0-.616.089-1.169.268-1.659s.435-.909.768-1.256a3.36 3.36 0 0 1 1.203-.8A4.233 4.233 0 0 1 26.449 12zm0 6.561c.437 0 .812-.102 1.128-.306s.555-.496.719-.875.247-.841.247-1.385-.082-1.006-.247-1.385a1.89 1.89 0 0 0-.719-.87c-.315-.2-.691-.301-1.128-.301s-.813.1-1.128.301-.555.49-.719.87-.247.841-.247 1.385.082 1.006.247 1.385a1.92 1.92 0 0 0 .719.875c.315.204.691.306 1.128.306zm4.031-6.4h6.486V13.6h-2.417v6.239h-1.653V13.6H30.48zm7.473 0h1.654V18.4h3.64v1.439h-5.294zm12.016 7.678-.558-1.664h-3.114l-.558 1.664h-1.772l1.487-3.941 1.53-3.737h1.782L50.318 16l1.466 3.839h-1.815zm-3.2-3.039h2.158l-.532-1.498-.542-1.466-1.084 2.964zm11.021 3.039-1.697-2.69-1.697-2.615v5.305h-1.589v-7.678h1.675l1.713 2.604 1.681 2.647v-5.251h1.589v7.678H57.79zm3.182-7.678h2.932c.809 0 1.502.15 2.078.451s1.015.736 1.315 1.305.451 1.258.451 2.067-.152 1.502-.456 2.078a3.1 3.1 0 0 1-1.315 1.321c-.573.304-1.267.456-2.083.456h-2.921v-7.678zm2.835 6.26c.716 0 1.265-.209 1.648-.628s.574-1.022.574-1.809c0-.78-.188-1.376-.564-1.788s-.925-.617-1.648-.617h-1.192v4.843h1.181z"
    fill="#fff"
    fill-rule="nonzero"
  ></path>
</svg>
<svg id="iplayer-nav-icon-bbcthree" viewBox="0 0 76 32">
  <path
    d="M10 10.2h10.56v2.343h-3.934V22.7h-2.693V12.543H10V10.2Zm20.297 12.5v-5.367H24.86V22.7h-2.692V10.2h2.692v4.79h5.437V10.2h2.693v12.5h-2.693Zm7.57-4.545V22.7H35.21V10.2h4.562c1.644 0 2.906.344 3.785 1.031.88.688 1.32 1.673 1.32 2.955 0 .828-.195 1.533-.585 2.115-.39.583-.947 1.032-1.67 1.347a220.78 220.78 0 0 1 1.556 2.491 146.86 146.86 0 0 1 1.539 2.561h-3.095a124.906 124.906 0 0 0-2.605-4.545h-2.15Zm0-2.116h1.748c.827 0 1.457-.149 1.888-.446.431-.297.647-.766.647-1.407s-.213-1.113-.638-1.416c-.426-.303-1.052-.455-1.88-.455h-1.765v3.724ZM47.08 10.2h8.601v2.238h-5.909v2.71h5.245v2.237h-5.245v3.077h6.241V22.7H47.08V10.2Zm10.576 0h8.602v2.238H60.35v2.71h5.245v2.237H60.35v3.077h6.241V22.7h-8.934V10.2Z"
    fill="#FFF"
    fill-rule="nonzero"
  ></path>
</svg>
<svg id="iplayer-nav-icon-bbcthree-active" viewBox="0 0 76 32">
  <path fill="#89FF00" d="M0 0h76v32H0z"></path>
  <path
    d="M10 10.2h10.56v2.343h-3.934V22.7h-2.693V12.543H10V10.2Zm20.297 12.5v-5.367H24.86V22.7h-2.692V10.2h2.692v4.79h5.437V10.2h2.693v12.5h-2.693Zm7.57-4.545V22.7H35.21V10.2h4.562c1.644 0 2.906.344 3.785 1.031.88.688 1.32 1.673 1.32 2.955 0 .828-.195 1.533-.585 2.115-.39.583-.947 1.032-1.67 1.347a220.78 220.78 0 0 1 1.556 2.491 146.86 146.86 0 0 1 1.539 2.561h-3.095a124.906 124.906 0 0 0-2.605-4.545h-2.15Zm0-2.116h1.748c.827 0 1.457-.149 1.888-.446.431-.297.647-.766.647-1.407s-.213-1.113-.638-1.416c-.426-.303-1.052-.455-1.88-.455h-1.765v3.724ZM47.08 10.2h8.601v2.238h-5.909v2.71h5.245v2.237h-5.245v3.077h6.241V22.7H47.08V10.2Zm10.576 0h8.602v2.238H60.35v2.71h5.245v2.237H60.35v3.077h6.241V22.7h-8.934V10.2Z"
    fill="#000"
  ></path>
</svg>
<svg id="iplayer-nav-icon-bbctwo" viewBox="0 0 76 32">
  <path
    d="M17 10.262h10.54V12.6h-3.926v10.138h-2.687V12.6H17v-2.338zm22.405 12.477-1.16-4.223-1.108-4.223-1.082 4.223-1.152 4.223h-2.844l-1.71-6.177-1.553-6.299h2.932l.925 4.851 1.03 4.764 2.216-9.091h2.617l1.073 4.459 1.125 4.441 1.012-4.676.908-4.746h2.879l-1.553 6.299-1.71 6.177h-2.845zm18.532-8.943c-.291-.796-.706-1.477-1.248-2.042s-1.193-.997-1.955-1.3S53.121 10 52.179 10s-1.794.151-2.557.454-1.413.736-1.954 1.3-.957 1.245-1.247 2.042-.437 1.696-.437 2.696c0 .989.146 1.885.437 2.688s.706 1.489 1.247 2.059 1.192 1.006 1.954 1.309 1.614.453 2.557.453 1.794-.151 2.556-.453a5.41 5.41 0 0 0 1.955-1.309c.541-.57.957-1.256 1.248-2.059s.436-1.698.436-2.687c0-1-.146-1.899-.436-2.696zm-2.757 4.947c-.268.617-.658 1.091-1.169 1.422s-1.123.497-1.832.497-1.321-.165-1.832-.497-.901-.805-1.169-1.422-.401-1.367-.401-2.251.133-1.634.401-2.251.657-1.088 1.169-1.413 1.123-.489 1.832-.489 1.32.163 1.832.489.901.797 1.169 1.413.401 1.367.401 2.251-.134 1.635-.401 2.251z"
    fill="#fff"
    fill-rule="nonzero"
  ></path>
</svg>
<svg id="iplayer-nav-icon-bbctwo-active" viewBox="0 0 76 32">
  <path fill="#10a88d" d="M0 0h76v32H0z"></path>
  <path
    d="M17 10.262h10.54V12.6h-3.926v10.138h-2.687V12.6H17v-2.338zm22.405 12.477-1.16-4.223-1.108-4.223-1.082 4.223-1.152 4.223h-2.844l-1.71-6.177-1.553-6.299h2.932l.925 4.851 1.03 4.764 2.216-9.091h2.617l1.073 4.459 1.125 4.441 1.012-4.676.908-4.746h2.879l-1.553 6.299-1.71 6.177h-2.845zm18.532-8.943c-.291-.796-.706-1.477-1.248-2.042s-1.193-.997-1.955-1.3S53.121 10 52.179 10s-1.794.151-2.557.454-1.413.736-1.954 1.3-.957 1.245-1.247 2.042-.437 1.696-.437 2.696c0 .989.146 1.885.437 2.688s.706 1.489 1.247 2.059 1.192 1.006 1.954 1.309 1.614.453 2.557.453 1.794-.151 2.556-.453a5.41 5.41 0 0 0 1.955-1.309c.541-.57.957-1.256 1.248-2.059s.436-1.698.436-2.687c0-1-.146-1.899-.436-2.696zm-2.757 4.947c-.268.617-.658 1.091-1.169 1.422s-1.123.497-1.832.497-1.321-.165-1.832-.497-.901-.805-1.169-1.422-.401-1.367-.401-2.251.133-1.634.401-2.251.657-1.088 1.169-1.413 1.123-.489 1.832-.489 1.32.163 1.832.489.901.797 1.169 1.413.401 1.367.401 2.251-.134 1.635-.401 2.251z"
    fill="#fff"
    fill-rule="nonzero"
  ></path>
</svg>
<svg id="iplayer-nav-icon-cbbc" viewBox="0 0 76 32">
  <path
    d="M47.152 11.957a10.04 10.04 0 0 0-3.688-4.336l.013 6.278a4.45 4.45 0 0 0 3.675-1.941m-3.675 6.147v6.265a10.04 10.04 0 0 0 3.674-4.326 4.45 4.45 0 0 0-3.674-1.94m-4.847 2.591a3.952 3.952 0 0 0 4.066-3.962V7.167a9.94 9.94 0 0 0-4.066-1.149v14.677zm.001.033-.001 5.254a9.96 9.96 0 0 0 4.066-1.148v-.144c0-2.237-1.83-4.02-4.066-3.962m-4.847-8.279h.001a4.07 4.07 0 0 0 4.066-4.068V6a9.94 9.94 0 0 0-4.068.93v5.519z"
  ></path>
  <path
    d="M33.783 25.07a9.96 9.96 0 0 0 4.068.93v-9.483a4.07 4.07 0 0 0-4.066-4.068h-.001V25.07zM28 16a9.995 9.995 0 0 0 5.004 8.663v-5.26a6.02 6.02 0 0 1 0-6.806v-5.26A9.995 9.995 0 0 0 28 16"
    fill="#fff"
    fill-rule="evenodd"
  ></path>
</svg>
<svg id="iplayer-nav-icon-cbbc-active" viewBox="0 0 76 32">
  <path fill="#2a205c" d="M0 0h76v32H0z"></path>
  <path d="M47.152 11.957a10.04 10.04 0 0 0-3.688-4.336l.013 6.278a4.45 4.45 0 0 0 3.675-1.941" fill="#f66c06"></path>
  <path d="M43.477 18.105v6.265a10.04 10.04 0 0 0 3.674-4.326 4.45 4.45 0 0 0-3.674-1.94" fill="#f63400"></path>
  <path d="M38.63 20.695a3.952 3.952 0 0 0 4.066-3.962V7.167a9.94 9.94 0 0 0-4.066-1.149v14.677z" fill="#0089a9"></path>
  <path
    d="m38.631 20.728-.001 5.254a9.958 9.958 0 0 0 4.066-1.148v-.144c0-2.237-1.83-4.02-4.066-3.962"
    fill="#00d2a9"
  ></path>
  <path d="M33.783 12.449h.001a4.07 4.07 0 0 0 4.066-4.068V6a9.939 9.939 0 0 0-4.068.93v5.519z" fill="#ff2c9f"></path>
  <path
    d="M33.783 25.07a9.96 9.96 0 0 0 4.068.93v-9.483a4.07 4.07 0 0 0-4.066-4.068h-.001V25.07z"
    fill="#d31c6f"
  ></path>
  <path
    d="M28 16a9.995 9.995 0 0 0 5.004 8.663v-5.26a6.02 6.02 0 0 1 0-6.806v-5.26A9.995 9.995 0 0 0 28 16"
    fill="#9ee500"
  ></path>
</svg>
<svg id="iplayer-nav-icon-cbeebies" viewBox="0 0 76 32">
  <path
    d="M64.082 19.55c-1.569-1.469-4.037-1.375-5.452.241-.114-.583.168-.422.402-.865.57-1.053 1.127-1.884.603-3.152-.845-2.079-3.675-2.287-5.338-1.093.08-1.194 1.267-1.294 1.529-2.588.208-1.053-.422-1.938-1.522-2.139-.919-.168-1.576.241-1.958 1.073-.275.61.241 1.703.06 2.085-.114.241-1.247.704-1.489.905.228-2.267-1.308-4.077-3.681-3.561.543-1.938 3.742-5.385-.074-6.296-3.903-.932-2.877 4.473-4.037 6.29-.637-4.198-6.639-2.776-7.229.731-1.14-.932-.838-2.608-2.468-3.4-2.079-1.006-4.157.603-4.714 2.622-.912-2.005-4.479-1.126-5.861-.315-2.065 1.214-2.89 3.205-2.327 5.559-2.34-2.052-5.002-2.971-7.068-.194-1.415 1.911-1.904 4.272-.979 6.511 1.013 2.454 3.675 5.217 6.538 5.096 2.528-.107 6.531-3.48 5.727-6.296 2.803.805 9.066-1.254 7.383-5.19 1.549.268 3.138-.443 4.164-1.596.845 1.603 4.164 3.594 5.653 1.683.925 3.239 4.882 3.883 7.289 1.824.731 1.281 2.521 1.247 3.494.349-.04 2.132 2.91 5.613 5.183 3.795 0 1.033-1.804 1.2-1.723 2.776.101 1.998 2.642 2.997 4.339 2.588.852-.208 1.623-.711 2.106-1.448.396-.61.201-1.569.496-2.032.248-.389 1.147-.536 1.475-1.14.53-.966.262-2.092-.523-2.823zm-10.897-8.248c.376-1.147 2.226-.262 1.616.992-.758 1.576-2.072.389-1.616-.992zm-24.563 1.153c.087-.201.536 1.006.691 1.22-.349-.087-.744-.027-1.086-.134l.396-1.086zm-7.302 5.297c.436.409.355.637-.248.691l.248-.691zm2.407 2.642c1.341 1.415-.966 3.809-2.052 4.681-1.562 1.261-3.326 1.569-5.11.51-2.26-1.348-4.184-4.178-3.722-6.893.288-1.676 1.69-4.231 3.574-4.359 1.945-.134 6.303 3.406 2.904 4.64-1.603.583-2.414-2.381-2.957-.483-.503 1.764 2.34 5.452 4.137 3.769.731-.684.194-1.938.704-2.669.865-1.241 1.73.013 2.521.805zm-3.172-1.301c-.335.751-.074 2.347-.912 2.696-1.261.523-2.246-1.596-2.427-2.454.999.852 2.427.63 3.339-.241zm8.543.516c-6.511 3.111-11.44-7.55-4.466-9.421 1.026-.275 3.044-.456 3.467.831.342 1.053-1.093 1.945-.282 2.984.831 1.066 2.655.194 3.487 1.609 1.033 1.757-.785 3.306-2.206 3.996zm6.35-5.874c-2.065 1.864-5.827 1.046-6.095-2.059-.201-2.313 2.796-4.942 4.613-2.555 1.013 1.334.127 1.884-.892 2.669-.624.483-1.515 1.12 0 1.127 1.1.007 1.194-1.589 2.199-1.247.966.335.738 1.562.174 2.065zm6.122.925c-.959 2.702-4.815-.53-4.949-2.427-.161-2.226 2.092-4.406 4.359-3.48.939.382 1.529 1.402 1.422 2.421-.181 1.65-1.207 1.442-2.501 1.301-.791-.087-1.811-.141-.778.811.758.697 3.078-.402 2.447 1.375zm7.557 1.67c-2.354 3.339-7.148.778-6.437-3.044.241-1.274 1.261-2.099 1.629-3.292.422-1.368-.08-3.058.912-4.278 1.22-1.495 3.359-.463 2.85 1.415-.295 1.1-1.489 1.871-1.656 3.024-.295 2.025 2.293.483 3.292 1.831.919 1.234.194 3.239-.59 4.345zm1.951 1.281c-2.354-.228-.08-3.178 1.053-3.587 2.434-.878.764 3.762-1.053 3.587zm5.21 1.777c.711.141 2.481.08 1.288 1.448-.704.805-2.179.154-2.877-.416-1.837-1.489-1.482-4.674.798-5.512 1.831-.671 4.848.986 3.212 3.152-1.073 1.422-1.683-.255-2.863-.013-.791.168-.382 1.18.443 1.341zm7.356 2.991c-1.334 1.415-1.63-2.662-2.816-1.019-.758 1.053 1.824 1.723 1.442 3.212-.335 1.301-1.951 1.904-3.152 1.676-1.1-.208-3.494-2.448-1.435-3.212.892-.335 2.079 2.716 2.682.972.409-1.18-1.764-1.375-1.576-2.769.496-3.789 7.121-1.281 4.855 1.14zm-7.22-5.095c1.08.134 1.797-1.462.402-1.596-.845-.08-1.328 1.482-.402 1.596zm-16.126-5.579c1.334-.034 1.408-1.616.074-1.623-1.328-.013-1.475 1.676-.074 1.623zM32.6 9.472c-.778-.671-2.28.865-1.777 1.63.657.999 2.776-.771 1.777-1.63zm13.203 3.366c-1.509.342.469 4.546 2.36 2.072 1.093-1.428-1.126-2.354-2.36-2.072zm-20.439 1.361c1.019-1.18-.101-3.38-1.515-2.005-1.187 1.147.597 3.078 1.515 2.005zm.074 1.978c-1.301.959 2.629 3.809 2.857.664.107-1.455-1.965-1.314-2.857-.664z"
    fill="#ebebeb"
    fill-rule="nonzero"
  ></path>
</svg>
<svg id="iplayer-nav-icon-cbeebies-active" viewBox="0 0 76 32">
  <path fill="#29c7ff" d="M0 0h76v32H0z"></path>
  <g fill-rule="nonzero">
    <path
      d="M64.125 19.699c-1.569-1.468-4.036-1.374-5.451.241-.114-.583.168-.422.402-.865.57-1.053 1.126-1.884.603-3.151-.845-2.078-3.674-2.286-5.337-1.093.08-1.193 1.267-1.294 1.529-2.588.208-1.053-.422-1.938-1.522-2.139-.919-.168-1.576.241-1.958 1.073-.275.61.241 1.703.06 2.085-.114.241-1.247.704-1.488.905.228-2.266-1.307-4.076-3.681-3.56.543-1.938 3.741-5.384-.074-6.295-3.902-.932-2.876 4.472-4.036 6.289-.637-4.197-6.637-2.776-7.227.731-1.14-.932-.838-2.608-2.467-3.399-2.078-1.006-4.157.603-4.713 2.622-.912-2.005-4.479-1.126-5.86-.315-2.065 1.213-2.89 3.205-2.327 5.558-2.34-2.052-5.002-2.97-7.066-.194-1.415 1.911-1.904 4.271-.979 6.51 1.012 2.454 3.674 5.216 6.537 5.095 2.528-.107 6.53-3.48 5.726-6.296 2.803.805 9.065-1.254 7.382-5.189 1.549.268 3.138-.443 4.163-1.596.845 1.602 4.163 3.594 5.652 1.683.925 3.238 4.881 3.882 7.288 1.824.731 1.281 2.521 1.247 3.493.349-.04 2.132 2.91 5.612 5.183 3.795 0 1.032-1.803 1.2-1.723 2.776.101 1.998 2.642 2.997 4.338 2.588.851-.208 1.623-.711 2.105-1.448.396-.61.201-1.569.496-2.032.248-.389 1.146-.536 1.475-1.14.53-.965.261-2.092-.523-2.823zm-35.453-7.093c.087-.201.536 1.006.691 1.22-.349-.087-.744-.027-1.086-.134l.396-1.086zm-7.301 5.297c.436.409.355.637-.248.691l.248-.691zm-.764 1.341c-.335.751-.074 2.347-.912 2.695-1.26.523-2.246-1.596-2.427-2.454.999.851 2.427.63 3.339-.241z"
      fill="#000"
    ></path>
    <path
      d="M63.596 20.269c-1.006-.939-2.615-1.153-3.761-.342-1.361.959-1.079 1.864-.315 2.903.322.442 1.441.737.805 1.542-.59.751-.925.181-1.328-.221-.55-.55-.449-1.636-1.495-.805-.691.55-.496 1.388-.114 1.998 1.555 2.461 6.349.442 4.438-2.192-.375-.523-1.596-.737-.959-1.629.724-1.006 1.046.154 1.441.496.55.476.463 1.254 1.374.523.764-.61.523-1.703-.087-2.273zM53.7 13.223c.624.241 1.529-.986 1.374-1.522-.201-.711-1.549-1.16-1.844-.248-.228.597-.241 1.502.469 1.77zm4.069 7.489c.858-1.542-1.167-.898-1.757-1.334-.919-.67-.65-1.046.067-1.12 1.173-.121 1.944 1.361 2.823-.261.55-1.006.047-2.326-.905-2.849-2.112-1.16-4.485.758-4.432 2.957.034 1.649 2.95 4.8 4.204 2.608zM40.324 8.751c-2.615-.107-4.485 2.42-3.339 4.881a3.51 3.51 0 0 0 2.983 2.005c.784.034 2.481-.577 1.596-1.797-.55-.751-2.145.577-2.668-.737-.55-1.368 1.783-.094 2.42-.275 2.172-.637.986-3.982-.992-4.076zM23.623 20.383c-2.937-3.084-1.689.999-3.232 2.139-1.844 1.361-5.008-2.615-3.922-4.264.724-1.106 1.609 1.871 3.339.624 2.642-1.897-2.058-4.901-3.936-4.291-1.71.556-2.93 3.124-3.037 4.774-.181 2.675 1.938 5.605 4.331 6.671 1.723.764 3.305.248 4.686-.905 1.173-.986 3.252-3.265 1.77-4.747zm12.216-8.012c-.771-1.736-1.529.422-2.279.65-.972.295-1.475-.047-.912-.784.737-.965 2.387-.939 1.602-2.588-.476-1.012-1.797-1.502-2.836-1.16-2.869.959-2.36 5.028.047 6.155 1.508.711 5.203-.067 4.378-2.273zm15.776 2.213c-.872.758-2.702 3.902 0 3.104 1.978-.59 2.521-5.283 0-3.104zm-1.502-1.368c-.067-.784-.456-1.401-1.193-1.71-.577-.241-1.488.208-1.938-.027-1.301-.67-.02-2.186.503-3.057.664-1.106 1.348-3.392-.851-3.352-1.783.034-1.998 2.427-2.145 3.741-.302 2.675-3.694 5.987-.577 8.448 2.843 2.246 6.644-.845 6.202-4.043zm-19.168 2.031c-.992-.865-3.111-.241-3.372-1.803-.174-1.066 1.207-1.864.154-2.896-1.602-1.562-5.29.442-6.121 2.011-1.462 2.769.838 6.966 3.741 7.65 2.219.53 8.91-2.085 5.598-4.961z"
      fill="#ffe40f"
    ></path>
    <path
      d="M57.615 16.32c-.664-1.019-2.166-.114-1.542.771.489.684 2.045.007 1.542-.771zm-18.323-5.424c-.369 1.106 2.648 1.462 2.072-.141-.295-.811-1.803-.657-2.072.141zm-6.644-1.274c-.778-.67-2.28.865-1.777 1.629.657.999 2.776-.771 1.777-1.629zm13.201 3.366c-1.509.342.469 4.546 2.36 2.072 1.093-1.428-1.126-2.353-2.36-2.072zm-20.436 1.361c1.019-1.18-.101-3.379-1.515-2.005-1.187 1.146.597 3.077 1.515 2.005zm.074 1.978c-1.301.959 2.628 3.808 2.856.664.107-1.455-1.964-1.314-2.856-.664z"
      fill="#4e2f90"
    ></path>
  </g>
</svg>
<svg id="iplayer-nav-icon-s4c" viewBox="0 0 76 32">
  <path
    d="M28.336 10c1.171 0 2.312.322 3.392.956l.062.037-.964 1.892-.074-.049c-.577-.396-1.492-.824-2.131-.824-1.138 0-1.9.684-1.9 1.706.008 1.014.923 1.406 1.987 1.863 1.443.618 3.079 1.319 3.079 3.759 0 2.119-1.768 3.66-4.2 3.66-1.129 0-2.312-.35-3.516-1.047l-.07-.041 1.043-1.772.19.103c.697.383 1.356.746 2.176.746.964 0 1.937-.49 1.937-1.583 0-1.014-.96-1.447-2.073-1.95-1.451-.651-3.1-1.393-3.1-3.652 0-2.168 1.789-3.804 4.163-3.804zm20.382 0c1.525 0 2.972.515 4.081 1.447l.054.045-1.084 1.723-.07-.058c-.709-.61-1.904-1.035-2.91-1.035-2.271 0-3.916 1.814-3.916 4.311 0 2.457 1.727 4.451 3.846 4.451 1.55 0 2.333-.375 3.067-.791l.066-.037.985 1.698-.058.041c-1.11.776-2.52 1.205-3.97 1.205-3.755 0-6.483-2.72-6.483-6.463 0-3.85 2.63-6.537 6.393-6.537zm-8.268.429v7.58h1.142v2.011h-1.166v2.729h-2.329V20.02h-5.02l-.639-1.731 5.684-7.86h2.329zm-2.263 2.852-3.199 4.728h3.194l.004-4.728z"
    fill="#fff"
    fill-rule="nonzero"
  ></path>
</svg>
<svg id="iplayer-nav-icon-s4c-active" viewBox="0 0 76 32">
  <path fill="#128d9c" d="m68 0-6.284 32H14V0z"></path>
  <path
    d="M28.336 10c1.171 0 2.312.322 3.392.956l.062.037-.964 1.892-.074-.049c-.577-.396-1.492-.824-2.131-.824-1.138 0-1.9.684-1.9 1.706.008 1.014.923 1.406 1.987 1.863 1.443.618 3.079 1.319 3.079 3.759 0 2.119-1.768 3.66-4.2 3.66-1.129 0-2.312-.35-3.516-1.047l-.07-.041 1.043-1.772.19.103c.697.383 1.356.746 2.176.746.964 0 1.937-.49 1.937-1.583 0-1.014-.96-1.447-2.073-1.95-1.451-.651-3.1-1.393-3.1-3.652 0-2.168 1.789-3.804 4.163-3.804zm20.382 0c1.525 0 2.972.515 4.081 1.447l.054.045-1.084 1.723-.07-.058c-.709-.61-1.904-1.035-2.91-1.035-2.271 0-3.916 1.814-3.916 4.311 0 2.457 1.727 4.451 3.846 4.451 1.55 0 2.333-.375 3.067-.791l.066-.037.985 1.698-.058.041c-1.11.776-2.52 1.205-3.97 1.205-3.755 0-6.483-2.72-6.483-6.463 0-3.85 2.63-6.537 6.393-6.537zm-8.268.429v7.58h1.142v2.011h-1.166v2.729h-2.329V20.02h-5.02l-.639-1.731 5.684-7.86h2.329zm-2.263 2.852-3.199 4.728h3.194l.004-4.728z"
    fill="#fff"
  ></path>
</svg>
